<svg width="24" height="24" viewBox="0 0 24 24" fill="none" xmlns="http://www.w3.org/2000/svg">
<path fill-rule="evenodd" clip-rule="evenodd" d="M12 1C10.8954 1 10 1.89543 10 3V4.06189C6.05369 4.55399 3 7.92038 3 12V18C3 19.1046 3.89543 20 5 20H9C9 21.6569 10.3431 23 12 23C13.6569 23 15 21.6569 15 20H19C20.1046 20 21 19.1046 21 18V12C21 7.92038 17.9463 4.55399 14 4.06189V3C14 1.89543 13.1046 1 12 1ZM13 5H11C7.13401 5 4 8.13401 4 12V18C4 18.5523 4.44772 19 5 19H19C19.5523 19 20 18.5523 20 18V12C20 8.13401 16.866 5 13 5ZM12 22C10.8954 22 10 21.1046 10 20H14C14 21.1046 13.1046 22 12 22Z" fill="#C9CAD4"/>
</svg>
