<svg width="24" height="24" viewBox="0 0 24 24" fill="none" xmlns="http://www.w3.org/2000/svg">
<path fill-rule="evenodd" clip-rule="evenodd" d="M11 7C10.7348 7 10.4804 6.89464 10.2929 6.70711L7.58579 4H3C2.44769 4 2 4.4477 2 5V19C2 19.5523 2.44769 20 3 20H21C21.5523 20 22 19.5523 22 19V8C22 7.4477 21.5523 7 21 7H11ZM8 3L11 6H21C22.1046 6 23 6.89543 23 8V19C23 20.1046 22.1046 21 21 21H3C1.89539 21 1 20.1046 1 19V5C1 3.89543 1.89539 3 3 3H8Z" fill="#C9CAD4"/>
<path d="M12 17C12 16.4477 12.4477 16 13 16H19C19.5523 16 20 16.4477 20 17C20 17.5523 19.5523 18 19 18H13C12.4477 18 12 17.5523 12 17Z" fill="#C9CAD4"/>
</svg>
